<svg width="148" height="34" fill="none" xmlns="http://www.w3.org/2000/svg"><path d="M47.04 24.74a.463.463 0 01-.34-.14.463.463 0 01-.14-.34V11.22c0-.147.047-.26.14-.34a.463.463 0 01.34-.14h1.86c.147 0 .26.046.34.14.093.08.14.193.14.34v11.14h6.34c.147 0 .267.046.36.14.093.093.14.213.14.36v1.4a.487.487 0 01-.14.36.534.534 0 01-.36.12h-8.68zm15.325.2c-1.56 0-2.766-.4-3.62-1.2-.853-.814-1.313-1.92-1.38-3.32l-.02-.88.02-.88c.067-1.387.534-2.487 1.4-3.3.867-.814 2.067-1.22 3.6-1.22 1.534 0 2.734.406 3.6 1.22.867.813 1.334 1.913 1.4 3.3.014.16.02.453.02.88 0 .426-.006.72-.02.88-.066 1.4-.526 2.506-1.38 3.32-.853.8-2.06 1.2-3.62 1.2zm0-1.98c.707 0 1.254-.22 1.64-.66.387-.454.6-1.114.64-1.98.014-.134.02-.394.02-.78 0-.387-.006-.647-.02-.78-.04-.867-.253-1.52-.64-1.96-.386-.454-.933-.68-1.64-.68-.706 0-1.253.226-1.64.68-.386.44-.6 1.093-.64 1.96l-.02.78.02.78c.04.866.254 1.526.64 1.98.387.44.934.66 1.64.66zm7.716 1.78a.463.463 0 01-.34-.14.463.463 0 01-.14-.34v-9.42c0-.134.047-.247.14-.34a.435.435 0 01.34-.16h1.62c.147 0 .267.046.36.14.094.093.14.213.14.36v.82c.32-.427.72-.754 1.2-.98.494-.227 1.054-.34 1.68-.34h.82c.147 0 .26.046.34.14.094.08.14.193.14.34v1.44a.463.463 0 01-.14.34.424.424 0 01-.34.14h-1.56c-.626 0-1.12.18-1.48.54-.36.36-.54.853-.54 1.48v5.5a.463.463 0 01-.14.34.488.488 0 01-.36.14h-1.74zm12.203.2c-1.48 0-2.66-.427-3.54-1.28-.866-.867-1.326-2.08-1.38-3.64l-.02-.5.02-.5c.067-1.52.534-2.714 1.4-3.58.88-.867 2.054-1.3 3.52-1.3 1.574 0 2.787.48 3.64 1.44.867.96 1.3 2.24 1.3 3.84v.42a.463.463 0 01-.14.34.488.488 0 01-.36.14h-6.64v.16c.027.733.227 1.353.6 1.86.387.493.914.74 1.58.74.787 0 1.42-.307 1.9-.92.12-.147.214-.24.28-.28.08-.04.194-.06.34-.06h1.72c.12 0 .22.04.3.12.094.066.14.153.14.26 0 .32-.193.7-.58 1.14-.373.426-.913.8-1.62 1.12-.706.32-1.526.48-2.46.48zm2.22-6.3v-.06c0-.787-.2-1.42-.6-1.9-.386-.48-.926-.72-1.62-.72-.693 0-1.233.24-1.62.72-.386.48-.58 1.113-.58 1.9v.06h4.42zm5.323 6.1a.463.463 0 01-.34-.14.463.463 0 01-.14-.34v-9.44c0-.134.047-.247.14-.34a.463.463 0 01.34-.14h1.56c.134 0 .247.046.34.14.094.093.14.206.14.34v.68c.694-.907 1.66-1.36 2.9-1.36 1.48 0 2.514.593 3.1 1.78.32-.534.774-.96 1.36-1.28.587-.334 1.22-.5 1.9-.5 1.094 0 1.987.373 2.68 1.12.694.746 1.04 1.833 1.04 3.26v5.74a.46.46 0 01-.14.34.423.423 0 01-.34.14h-1.64a.465.465 0 01-.34-.14.464.464 0 01-.14-.34v-5.58c0-.84-.18-1.447-.54-1.82-.346-.387-.813-.58-1.4-.58-.52 0-.966.193-1.34.58-.36.386-.54.993-.54 1.82v5.58a.463.463 0 01-.14.34.463.463 0 01-.34.14h-1.64a.463.463 0 01-.34-.14.463.463 0 01-.14-.34v-5.58c0-.84-.186-1.447-.56-1.82-.36-.387-.82-.58-1.38-.58a1.82 1.82 0 00-1.36.58c-.36.386-.54.993-.54 1.82v5.58a.463.463 0 01-.14.34.463.463 0 01-.34.14h-1.68zm21.647 0c-.426 0-.7-.2-.82-.6l-4.08-12.8-.04-.18c0-.107.04-.2.12-.28.094-.094.2-.14.32-.14h2.48c.187 0 .34.053.46.16.134.106.22.226.26.36l2.84 9.24 2.82-9.24a.781.781 0 01.24-.36.747.747 0 01.48-.16h2.5c.107 0 .2.046.28.14.094.08.14.173.14.28l-.04.18-4.08 12.8c-.12.4-.393.6-.82.6h-3.06zm10.367 0a.534.534 0 01-.36-.14.534.534 0 01-.14-.36v-13c0-.147.047-.267.14-.36a.534.534 0 01.36-.14h5.6c1.707 0 3.047.393 4.02 1.18.987.786 1.48 1.933 1.48 3.44 0 1.493-.486 2.62-1.46 3.38-.973.746-2.32 1.12-4.04 1.12h-2.38v4.38a.455.455 0 01-.16.36.486.486 0 01-.36.14h-2.7zm5.5-7.64c.587 0 1.047-.147 1.38-.44.334-.307.5-.754.5-1.34 0-.547-.16-.98-.48-1.3-.306-.334-.773-.5-1.4-.5h-2.34v3.58h2.34zm8.016 7.64a.534.534 0 01-.36-.14.534.534 0 01-.14-.36v-13c0-.147.047-.267.14-.36a.534.534 0 01.36-.14h2.12c.333 0 .56.126.68.38l4.88 7.68v-7.56c0-.147.047-.267.14-.36a.534.534 0 01.36-.14h2.4c.147 0 .267.046.36.14.093.093.14.213.14.36v12.98a.56.56 0 01-.14.38.486.486 0 01-.36.14h-2.14a.716.716 0 01-.66-.38l-4.88-7.4v7.28a.534.534 0 01-.14.36.486.486 0 01-.36.14h-2.4z" fill="#0B132A"/><path d="M31.147 12.807l-.021-.02a.011.011 0 01-.005-.005L17.502 0 3.88 12.782a.076.076 0 00-.004.004l-.023.02C1.771 14.772.448 17.334.095 20.087c-.353 2.752.285 5.536 1.811 7.91 1.527 2.372 3.855 4.198 6.615 5.187a14.065 14.065 0 008.615.268c.238-.068.492-.068.73 0 2.822.815 5.855.72 8.614-.269 2.76-.989 5.087-2.815 6.614-5.187 1.526-2.373 2.164-5.157 1.811-7.908-.352-2.752-1.675-5.315-3.758-7.28zM8.723 21.236a.669.669 0 00-.155.217.634.634 0 00-.054.256 11.847 11.847 0 001.965 6.384.23.23 0 01-.022.284.262.262 0 01-.136.079.275.275 0 01-.16-.011 7.97 7.97 0 01-2.536-1.602C6.136 25.445 5.3 23.55 5.298 21.575c-.001-1.976.833-3.872 2.32-5.271l9.883-9.273 9.882 9.273c1.487 1.399 2.322 3.295 2.32 5.27-.001 1.977-.838 3.871-2.327 5.269a7.97 7.97 0 01-2.536 1.602.275.275 0 01-.16.01.263.263 0 01-.136-.078.23.23 0 01-.023-.284 11.848 11.848 0 001.967-6.384.634.634 0 00-.055-.256.67.67 0 00-.155-.218l-4.674-4.652a.27.27 0 00-.332 0 .24.24 0 00-.089.143.23.23 0 00.03.163c1.815 3.083.254 7.51-2.35 9.954l-.013.013c-.36.333-.844.52-1.35.52-.505 0-.99-.187-1.35-.521l-.012-.012c-2.604-2.443-4.164-6.87-2.349-9.953a.23.23 0 00.03-.163.24.24 0 00-.09-.143.269.269 0 00-.33 0l-4.676 4.652z" fill="#F53838"/></svg>