<svg width="149" height="36" fill="none" xmlns="http://www.w3.org/2000/svg"><path d="M46.9 25.077a.533.533 0 01-.36-.14.533.533 0 01-.14-.36v-13c0-.147.047-.267.14-.36a.533.533 0 01.36-.14h2.64c.147 0 .267.047.36.14.093.093.14.213.14.36v10.48h6.06c.147 0 .267.053.36.16.093.093.14.213.14.36v2a.533.533 0 01-.14.36.487.487 0 01-.36.14h-9.2zm16.036.2c-1.653 0-2.927-.393-3.82-1.18-.893-.787-1.38-1.893-1.46-3.32-.013-.173-.02-.473-.02-.9 0-.427.007-.727.02-.9.08-1.413.58-2.513 1.5-3.3.92-.8 2.18-1.2 3.78-1.2 1.613 0 2.88.4 3.8 1.2.92.787 1.42 1.887 1.5 3.3.013.173.02.473.02.9 0 .427-.007.727-.02.9-.08 1.427-.567 2.533-1.46 3.32-.893.787-2.173 1.18-3.84 1.18zm0-2.44c.587 0 1.02-.173 1.3-.52.28-.36.44-.907.48-1.64.013-.133.02-.4.02-.8s-.007-.667-.02-.8c-.04-.72-.207-1.26-.5-1.62-.28-.36-.707-.54-1.28-.54-1.107 0-1.693.72-1.76 2.16l-.02.8.02.8c.027.733.18 1.28.46 1.64.293.347.727.52 1.3.52zm7.807 2.24a.487.487 0 01-.36-.14.487.487 0 01-.14-.36v-9.4c0-.147.046-.267.14-.36a.487.487 0 01.36-.14h2.3c.146 0 .266.053.36.16.106.093.16.207.16.34v.8c.733-.867 1.72-1.3 2.96-1.3h.88c.146 0 .266.047.36.14.093.093.14.213.14.36v2.06a.533.533 0 01-.14.36.487.487 0 01-.36.14h-1.94c-.547 0-.974.153-1.28.46-.294.293-.44.713-.44 1.26v5.12a.456.456 0 01-.16.36.487.487 0 01-.36.14h-2.48zm13.284.2c-1.6 0-2.86-.433-3.78-1.3-.92-.867-1.4-2.127-1.44-3.78v-.7c.053-1.573.54-2.8 1.46-3.68.933-.893 2.18-1.34 3.74-1.34 1.133 0 2.087.233 2.86.7a4.279 4.279 0 011.76 1.88c.4.8.6 1.72.6 2.76v.48a.533.533 0 01-.14.36.488.488 0 01-.36.14h-6.4v.14c.026.627.18 1.133.46 1.52s.686.58 1.22.58c.333 0 .606-.067.82-.2.213-.147.407-.32.58-.52.12-.147.213-.233.28-.26.08-.04.2-.06.36-.06h2.48c.12 0 .22.04.3.12.093.067.14.16.14.28 0 .347-.2.747-.6 1.2-.387.453-.954.847-1.7 1.18-.747.333-1.627.5-2.64.5zm1.68-6.46v-.04c0-.653-.153-1.167-.46-1.54-.293-.387-.707-.58-1.24-.58-.52 0-.934.193-1.24.58-.293.373-.44.887-.44 1.54v.04h3.38zm5.895 6.26a.487.487 0 01-.36-.14.487.487 0 01-.14-.36v-9.4c0-.147.046-.267.14-.36a.487.487 0 01.36-.14h2.18c.147 0 .267.047.36.14.093.093.14.213.14.36v.68c.306-.4.713-.727 1.22-.98.52-.267 1.1-.4 1.74-.4 1.466 0 2.48.573 3.04 1.72.32-.507.767-.92 1.34-1.24a3.716 3.716 0 011.84-.48c1.093 0 1.98.373 2.66 1.12.693.733 1.04 1.833 1.04 3.3v5.68a.534.534 0 01-.14.36.486.486 0 01-.36.14h-2.32a.558.558 0 01-.38-.14.489.489 0 01-.14-.36v-5.54c0-.667-.14-1.147-.42-1.44-.267-.293-.633-.44-1.1-.44-.427 0-.78.153-1.06.46-.28.293-.42.767-.42 1.42v5.54a.534.534 0 01-.14.36.486.486 0 01-.36.14h-2.32a.487.487 0 01-.36-.14.487.487 0 01-.14-.36v-5.54c0-.653-.147-1.127-.44-1.42-.28-.307-.64-.46-1.08-.46-.427 0-.787.153-1.08.46-.28.293-.42.76-.42 1.4v5.56a.533.533 0 01-.14.36.488.488 0 01-.36.14h-2.38zm20.986 0c-.427 0-.7-.2-.82-.6l-4.08-12.8-.04-.18c0-.107.04-.2.12-.28a.44.44 0 01.32-.14h2.48c.186 0 .34.053.46.16.133.107.22.227.26.36l2.84 9.24 2.82-9.24a.781.781 0 01.24-.36.743.743 0 01.48-.16h2.5c.106 0 .2.047.28.14a.36.36 0 01.14.28l-.04.18-4.08 12.8c-.12.4-.394.6-.82.6h-3.06zm10.367 0a.53.53 0 01-.36-.14.53.53 0 01-.14-.36v-13c0-.147.046-.267.14-.36a.53.53 0 01.36-.14h5.6c1.706 0 3.046.393 4.02 1.18.986.787 1.48 1.933 1.48 3.44 0 1.493-.487 2.62-1.46 3.38-.974.747-2.32 1.12-4.04 1.12h-2.38v4.38a.459.459 0 01-.16.36.49.49 0 01-.36.14h-2.7zm5.5-7.64c.586 0 1.046-.147 1.38-.44.333-.307.5-.753.5-1.34 0-.547-.16-.98-.48-1.3-.307-.333-.774-.5-1.4-.5h-2.34v3.58h2.34zm8.015 7.64a.534.534 0 01-.36-.14.534.534 0 01-.14-.36v-13c0-.147.047-.267.14-.36a.534.534 0 01.36-.14h2.12c.334 0 .56.127.68.38l4.88 7.68v-7.56c0-.147.047-.267.14-.36a.534.534 0 01.36-.14h2.4c.147 0 .267.047.36.14.094.093.14.213.14.36v12.98a.555.555 0 01-.14.38.486.486 0 01-.36.14h-2.14a.716.716 0 01-.66-.38l-4.88-7.4v7.28a.53.53 0 01-.14.36.486.486 0 01-.36.14h-2.4z" fill="#0B132A"/><path d="M31.147 13.56l-.021-.021a.012.012 0 01-.005-.005L17.502 0 3.88 13.534l-.004.004-.023.022a13.092 13.092 0 00-1.947 16.082 13.225 13.225 0 006.615 5.492 13.325 13.325 0 008.615.285c.238-.072.492-.072.73 0 2.822.862 5.855.762 8.614-.285a13.225 13.225 0 006.614-5.492 13.092 13.092 0 00-1.947-16.082zM8.723 22.485a.71.71 0 00-.209.501 13.072 13.072 0 001.965 6.76.255.255 0 01-.158.384.26.26 0 01-.16-.012 7.923 7.923 0 01-2.536-1.696 7.871 7.871 0 01-2.327-5.578 7.87 7.87 0 012.32-5.581l9.883-9.818 9.882 9.818a7.868 7.868 0 012.32 5.58 7.87 7.87 0 01-2.327 5.579 7.924 7.924 0 01-2.536 1.696.26.26 0 01-.356-.219.256.256 0 01.038-.154 13.073 13.073 0 001.966-6.759.704.704 0 00-.21-.502l-4.674-4.926a.26.26 0 00-.42.152c-.012.059-.001.12.029.172 1.815 3.264.254 7.953-2.35 10.54l-.013.014a1.924 1.924 0 01-2.7-.001l-.012-.013c-2.604-2.587-4.164-7.275-2.349-10.539a.255.255 0 00-.06-.324.26.26 0 00-.33 0l-4.676 4.926z" fill="#F53838"/></svg>