<svg width="25" height="24" viewBox="0 0 25 24" fill="none" xmlns="http://www.w3.org/2000/svg">
<path d="M10.5212 16.73C10.3895 16.7303 10.2591 16.7046 10.1373 16.6545C10.0156 16.6044 9.90499 16.5308 9.81186 16.438L5.55559 12.195C5.4597 12.1028 5.38318 11.9925 5.33051 11.8706C5.27784 11.7486 5.25007 11.6174 5.24882 11.4846C5.24757 11.3518 5.27287 11.2201 5.32323 11.0972C5.37359 10.9743 5.44801 10.8626 5.54216 10.7686C5.6363 10.6747 5.74827 10.6003 5.87154 10.55C5.99481 10.4996 6.12692 10.4742 6.26014 10.4753C6.39337 10.4763 6.52505 10.5038 6.6475 10.5561C6.76995 10.6085 6.88072 10.6846 6.97334 10.78L10.5202 14.315L16.9066 7.952C17.0948 7.76436 17.35 7.65889 17.6162 7.6588C17.8823 7.6587 18.1376 7.76399 18.3259 7.9515C18.5142 8.13901 18.62 8.39338 18.6201 8.65865C18.6202 8.92392 18.5145 9.17836 18.3264 9.366L11.2306 16.438C11.1375 16.5308 11.0269 16.6044 10.9051 16.6545C10.7834 16.7046 10.6529 16.7303 10.5212 16.73Z" fill="#2FAB73"/>
</svg>
