<svg width="148" height="166" fill="none" xmlns="http://www.w3.org/2000/svg"><path fill-rule="evenodd" clip-rule="evenodd" d="M52.867 40.423c.662-1.423 1.437-2.528 1.949-3.11a12.12 12.12 0 01-.536 3.677 12.353 12.353 0 013.09 2.11c-.78-.024-2.125-.21-3.629-.696-.693 1.514-1.569 2.559-2.143 3.045.039-1.273.31-2.494.69-3.595-1.075-.472-2.164-1.104-3.135-1.941.75-.087 2.12-.015 3.714.51z" fill="url(#paint0_linear)"/><path fill-rule="evenodd" clip-rule="evenodd" d="M47.635 26.172c.44-.947.957-1.682 1.297-2.07a8.072 8.072 0 01-.356 2.448 8.223 8.223 0 012.057 1.404c-.519-.016-1.415-.14-2.416-.463-.461 1.007-1.044 1.703-1.427 2.027.026-.848.207-1.66.46-2.393a8.299 8.299 0 01-2.087-1.292c.5-.058 1.412-.01 2.472.339z" fill="url(#paint1_linear)"/><path fill-rule="evenodd" clip-rule="evenodd" d="M33.48 12.007c.661-1.422 1.436-2.527 1.948-3.11a12.124 12.124 0 01-.535 3.678 12.353 12.353 0 013.09 2.109c-.78-.024-2.126-.21-3.63-.696-.693 1.514-1.569 2.559-2.143 3.046.04-1.274.31-2.495.69-3.596-1.075-.472-2.164-1.104-3.135-1.941.751-.087 2.121-.014 3.715.51z" fill="url(#paint2_linear)"/><path fill-rule="evenodd" clip-rule="evenodd" d="M31.235 43.9c.974-2.093 2.114-3.719 2.868-4.576.014 2.022-.3 3.835-.787 5.41 1.5.717 3.057 1.72 4.546 3.104-1.147-.035-3.127-.31-5.34-1.023-1.02 2.227-2.309 3.765-3.154 4.48.057-1.873.456-3.67 1.015-5.29-1.58-.694-3.183-1.625-4.611-2.856 1.105-.128 3.12-.02 5.463.75z" fill="url(#paint3_linear)"/><ellipse rx=".851" ry=".846" transform="matrix(.93234 .36157 -.36777 .92992 37.092 29.576)" fill="#2F235A"/><ellipse rx=".851" ry=".846" transform="matrix(.93234 .36157 -.36777 .92992 58.21 18.956)" fill="#FE9076"/><ellipse rx=".851" ry=".846" transform="matrix(.93234 .36157 -.36777 .92992 17.671 23.57)" fill="#FFA400"/><ellipse rx=".851" ry=".846" transform="matrix(.93234 .36157 -.36777 .92992 35.987 57.578)" fill="#23BB86"/><path d="M57.563 14.92c-.83-3.14-3.825-10.317-9.167-13.92" stroke="#FE9076" stroke-width=".737" stroke-linecap="round"/><path d="M15.154 20.163C13.09 17.643 7.368 12.333 1 11.236" stroke="#FFA400" stroke-width=".737" stroke-linecap="round"/><path d="M32.358 58.806c-1.83.66-6.436 2.766-10.223 5.902" stroke="#23BB86" stroke-width=".737" stroke-linecap="round"/><path fill-rule="evenodd" clip-rule="evenodd" d="M95.133 40.423c-.662-1.423-1.437-2.528-1.949-3.11-.01 1.374.204 2.606.536 3.677a12.353 12.353 0 00-3.09 2.11c.78-.024 2.125-.21 3.629-.696.693 1.514 1.569 2.559 2.143 3.045-.039-1.273-.31-2.494-.69-3.595 1.075-.472 2.164-1.104 3.135-1.941-.75-.087-2.12-.015-3.714.51z" fill="url(#paint4_linear)"/><path fill-rule="evenodd" clip-rule="evenodd" d="M100.364 26.172c-.44-.947-.956-1.682-1.297-2.07a8.066 8.066 0 00.357 2.448 8.22 8.22 0 00-2.058 1.404c.52-.016 1.415-.14 2.417-.463.461 1.007 1.044 1.703 1.426 2.027a8.137 8.137 0 00-.459-2.393 8.3 8.3 0 002.086-1.292c-.5-.058-1.411-.01-2.472.339z" fill="url(#paint5_linear)"/><path fill-rule="evenodd" clip-rule="evenodd" d="M114.52 12.007c-.661-1.422-1.436-2.527-1.948-3.11-.01 1.374.204 2.607.535 3.678a12.358 12.358 0 00-3.09 2.109c.78-.024 2.126-.21 3.629-.696.693 1.514 1.569 2.559 2.144 3.046-.039-1.274-.31-2.495-.69-3.596 1.075-.472 2.164-1.104 3.135-1.941-.751-.087-2.121-.014-3.715.51z" fill="url(#paint6_linear)"/><path fill-rule="evenodd" clip-rule="evenodd" d="M116.764 43.9c-.973-2.093-2.113-3.719-2.867-4.576-.015 2.022.3 3.835.787 5.411a18.19 18.19 0 00-4.546 3.103c1.147-.035 3.127-.31 5.339-1.023 1.02 2.227 2.309 3.765 3.155 4.481-.058-1.874-.456-3.67-1.015-5.291 1.581-.694 3.183-1.625 4.611-2.856-1.105-.128-3.12-.02-5.464.75z" fill="url(#paint7_linear)"/><ellipse rx=".851" ry=".846" transform="matrix(-.93234 .36157 .36777 .92992 110.908 29.576)" fill="#2F235A"/><ellipse rx=".851" ry=".846" transform="matrix(-.93234 .36157 .36777 .92992 89.79 18.956)" fill="#FE9076"/><ellipse rx=".851" ry=".846" transform="matrix(-.93234 .36157 .36777 .92992 130.329 23.57)" fill="#FFA400"/><ellipse rx=".851" ry=".846" transform="matrix(-.93234 .36157 .36777 .92992 112.013 57.578)" fill="#23BB86"/><path d="M90.437 14.92c.83-3.14 3.825-10.317 9.167-13.92" stroke="#FE9076" stroke-width=".737" stroke-linecap="round"/><path d="M132.846 20.163c2.064-2.52 7.786-7.83 14.154-8.927" stroke="#FFA400" stroke-width=".737" stroke-linecap="round"/><path d="M115.642 58.806c1.83.66 6.436 2.766 10.223 5.902" stroke="#23BB86" stroke-width=".737" stroke-linecap="round"/><path fill="url(#paint8_linear)" d="M28.191 104.03h90.53V166h-90.53z"/><mask id="a" maskUnits="userSpaceOnUse" x="28" y="104" width="91" height="62"><path fill="#C4C4C4" d="M28.191 104.03h90.53V166h-90.53z"/></mask><g mask="url(#a)"><path d="M32.475 102.452H94.12l-13.934 23.957H18.542l13.933-23.957z" fill="#000" fill-opacity=".07"/><path fill="url(#paint9_linear)" d="M89.755 104.03h90.53V166h-90.53z"/></g><path d="M28.111 104.03h61.645l-11.908 19.678H16.203l11.908-19.678z" fill="url(#paint10_linear)"/><mask id="b" maskUnits="userSpaceOnUse" x="89" y="104" width="30" height="62"><path fill="#C4C4C4" d="M89.756 104.03h28.965V166H89.756z"/></mask><g mask="url(#b)"><path d="M115.195 103.927h-29.01l13.63 22.655h29.011l-13.631-22.655z" fill="#000" fill-opacity=".07"/></g><path d="M118.766 104.03h-29.01l11.908 19.678h29.01l-11.908-19.678z" fill="url(#paint11_linear)"/><ellipse cx="60.283" cy="86.871" rx="8.555" ry="8.472" fill="url(#paint12_linear)"/><ellipse cx="86.883" cy="75.547" rx="8.267" ry="8.186" fill="url(#paint13_linear)"/><ellipse cx="68.838" cy="54.688" rx="6.666" ry="6.601" fill="url(#paint14_linear)"/><ellipse cx="91.418" cy="53.692" rx="1.662" ry="1.646" fill="#FFA800" fill-opacity=".23"/><ellipse cx="80.279" cy="91.111" rx="1.662" ry="1.646" fill="#FFA800" fill-opacity=".23"/><ellipse cx="52.98" cy="65.714" rx="1.662" ry="1.646" fill="#FFA800" fill-opacity=".23"/><path d="M118.935 104.323H28.12L14.173 19.169h121.51l-16.748 85.154z" fill="url(#paint15_linear)"/><defs><linearGradient id="paint0_linear" x1="54.563" y1="38.214" x2="51.593" y2="45.873" gradientUnits="userSpaceOnUse"><stop stop-color="#FFE89E"/><stop offset="1" stop-color="#FFBF1A"/></linearGradient><linearGradient id="paint1_linear" x1="48.765" y1="24.702" x2="46.788" y2="29.8" gradientUnits="userSpaceOnUse"><stop stop-color="#FFE89E"/><stop offset="1" stop-color="#FFBF1A"/></linearGradient><linearGradient id="paint2_linear" x1="35.176" y1="9.798" x2="32.205" y2="17.458" gradientUnits="userSpaceOnUse"><stop stop-color="#FFE89E"/><stop offset="1" stop-color="#FFBF1A"/></linearGradient><linearGradient id="paint3_linear" x1="33.732" y1="40.65" x2="29.362" y2="51.92" gradientUnits="userSpaceOnUse"><stop stop-color="#FFE89E"/><stop offset="1" stop-color="#FFBF1A"/></linearGradient><linearGradient id="paint4_linear" x1="93.436" y1="38.214" x2="96.407" y2="45.873" gradientUnits="userSpaceOnUse"><stop stop-color="#FFE89E"/><stop offset="1" stop-color="#FFBF1A"/></linearGradient><linearGradient id="paint5_linear" x1="99.235" y1="24.702" x2="101.212" y2="29.8" gradientUnits="userSpaceOnUse"><stop stop-color="#FFE89E"/><stop offset="1" stop-color="#FFBF1A"/></linearGradient><linearGradient id="paint6_linear" x1="112.824" y1="9.798" x2="115.795" y2="17.458" gradientUnits="userSpaceOnUse"><stop stop-color="#FFE89E"/><stop offset="1" stop-color="#FFBF1A"/></linearGradient><linearGradient id="paint7_linear" x1="114.267" y1="40.65" x2="118.638" y2="51.92" gradientUnits="userSpaceOnUse"><stop stop-color="#FFE89E"/><stop offset="1" stop-color="#FFBF1A"/></linearGradient><linearGradient id="paint8_linear" x1="58.433" y1="92.557" x2="22.972" y2="191.189" gradientUnits="userSpaceOnUse"><stop stop-color="#FFD481"/><stop offset="1" stop-color="#FA620C"/></linearGradient><linearGradient id="paint9_linear" x1="43.637" y1="100.1" x2="151.996" y2="217.036" gradientUnits="userSpaceOnUse"><stop stop-color="#FFD481"/><stop offset=".833" stop-color="#FA620C"/></linearGradient><linearGradient id="paint10_linear" x1="29.38" y1="96.997" x2="26.507" y2="138.929" gradientUnits="userSpaceOnUse"><stop stop-color="#FFD481"/><stop offset="1" stop-color="#FA620C"/></linearGradient><linearGradient id="paint11_linear" x1="123.344" y1="96.997" x2="128.455" y2="138.496" gradientUnits="userSpaceOnUse"><stop stop-color="#FFD481"/><stop offset="1" stop-color="#FA620C"/></linearGradient><linearGradient id="paint12_linear" x1="60.931" y1="75.603" x2="59.335" y2="98.472" gradientUnits="userSpaceOnUse"><stop stop-color="#FF9F81"/><stop offset="1" stop-color="#F53838"/></linearGradient><linearGradient id="paint13_linear" x1="87.509" y1="64.659" x2="85.967" y2="86.757" gradientUnits="userSpaceOnUse"><stop stop-color="#FF9F81"/><stop offset="1" stop-color="#F53838"/></linearGradient><linearGradient id="paint14_linear" x1="69.343" y1="45.908" x2="68.099" y2="63.729" gradientUnits="userSpaceOnUse"><stop stop-color="#FF9F81"/><stop offset="1" stop-color="#F53838"/></linearGradient><linearGradient id="paint15_linear" x1="73.929" y1="19.169" x2="73.929" y2="200.082" gradientUnits="userSpaceOnUse"><stop stop-color="#fff" stop-opacity="0"/><stop offset="1" stop-color="#FE9277"/></linearGradient></defs></svg>